<svg width="53" height="53" viewBox="0 0 53 53" fill="none" xmlns="http://www.w3.org/2000/svg">
<rect x="0.296069" y="0.296313" width="51.4097" height="51.4097" rx="25.7049" fill="white" stroke="#D3D7DF" stroke-width="0.590916"/>
<path fill-rule="evenodd" clip-rule="evenodd" d="M36.2121 26.2429C36.2121 25.4887 36.1444 24.7635 36.0187 24.0673H26.0011V28.1816H31.7255C31.4789 29.5112 30.7295 30.6377 29.603 31.3919V34.0607H33.0405C35.0518 32.209 36.2121 29.4822 36.2121 26.2429Z" fill="#4285F4"/>
<path fill-rule="evenodd" clip-rule="evenodd" d="M26.0004 36.6377C28.8722 36.6377 31.28 35.6852 33.0398 34.0607L29.6023 31.3919C28.6498 32.0301 27.4315 32.4072 26.0004 32.4072C23.2301 32.4072 20.8852 30.5362 20.0488 28.0221H16.4952V30.7779C18.2454 34.2541 21.8425 36.6377 26.0004 36.6377Z" fill="#34A853"/>
<path fill-rule="evenodd" clip-rule="evenodd" d="M20.0498 28.0221C19.837 27.3839 19.7162 26.7022 19.7162 26.0011C19.7162 25.3001 19.837 24.6184 20.0498 23.9802V21.2244H16.4962C15.7758 22.6603 15.3649 24.2848 15.3649 26.0011C15.3649 27.7175 15.7758 29.3419 16.4962 30.7779L20.0498 28.0221Z" fill="#FBBC05"/>
<path fill-rule="evenodd" clip-rule="evenodd" d="M26.0004 19.5952C27.562 19.5952 28.9641 20.1318 30.0664 21.1858L33.1172 18.1351C31.2751 16.4187 28.8674 15.3647 26.0004 15.3647C21.8425 15.3647 18.2454 17.7483 16.4952 21.2245L20.0488 23.9803C20.8852 21.4662 23.2301 19.5952 26.0004 19.5952Z" fill="#EA4335"/>
</svg>
